M48
; DRILL file {KiCad (5.1.7)-1} date 12/19/20 19:21:07
; FORMAT={-:-/ absolute / inch / decimal}
; #@! TF.CreationDate,2020-12-19T19:21:07-05:00
; #@! TF.GenerationSoftware,Kicad,Pcbnew,(5.1.7)-1
FMAT,2
INCH
T1C0.0157
T2C0.0295
T3C0.0315
T4C0.0394
T5C0.0512
T6C0.0984
%
G90
G05
T1
X-1.3748Y10.4728
X-0.4921Y9.5063
X-0.4453Y9.5492
T2
X-2.2362Y8.7835
X-2.1862Y8.7835
X-2.1362Y8.7835
T3
X-0.2047Y8.5551
X-0.0079Y8.5551
X-2.2244Y8.3976
X-2.1457Y8.3976
X-1.2402Y8.6323
X-1.2402Y8.2323
X0.2453Y8.2482
X0.6453Y8.2482
X0.8268Y8.0394
X0.9055Y8.0394
X-2.2283Y9.1417
X-2.1496Y9.1417
X-0.1299Y8.0433
X-0.0512Y8.0433
X-0.7226Y9.1232
X-0.3226Y9.1232
X-1.5512Y8.6323
X-1.5512Y8.2323
X-0.1339Y8.8976
X-0.0551Y8.8976
X-0.1969Y7.7087
X0.0Y7.7087
X0.8268Y8.8976
X0.9055Y8.8976
X-0.9764Y8.6339
X-0.9764Y8.2339
X-1.8189Y8.6323
X-1.8189Y8.2323
X0.7677Y8.5551
X0.9646Y8.5551
X-1.6008Y9.6614
X-1.2008Y9.6614
X-1.3976Y9.0157
X-1.3976Y8.8189
X0.2453Y9.1232
X0.6453Y9.1232
X-0.7226Y8.2482
X-0.3226Y8.2482
X0.7638Y7.7087
X0.9606Y7.7087
T4
X-0.6726Y7.9982
X-0.6726Y7.8982
X-0.6726Y7.7982
X-0.6726Y7.6982
X-0.3726Y7.9982
X-0.3726Y7.8982
X-0.3726Y7.7982
X-0.3726Y7.6982
X0.2953Y8.8482
X0.2953Y8.7482
X0.2953Y8.6482
X0.2953Y8.5482
X0.5953Y8.8482
X0.5953Y8.7482
X0.5953Y8.6482
X0.5953Y8.5482
X-0.7961Y9.6654
X-0.6961Y9.6654
X-0.5961Y9.6654
X-0.4961Y9.6654
X-0.3961Y9.6654
X-0.2961Y9.6654
X-0.1961Y9.6654
X-0.0961Y9.6654
X0.0039Y9.6654
X0.1039Y9.6654
X0.2039Y9.6654
X0.3039Y9.6654
X0.4039Y9.6654
X0.5039Y9.6654
X-1.2559Y7.9961
X-1.2559Y7.8961
X-1.2559Y7.7961
X-1.2559Y7.6961
X-0.9559Y7.9961
X-0.9559Y7.8961
X-0.9559Y7.7961
X-0.9559Y7.6961
X-0.6726Y8.8482
X-0.6726Y8.7482
X-0.6726Y8.6482
X-0.6726Y8.5482
X-0.3726Y8.8482
X-0.3726Y8.7482
X-0.3726Y8.6482
X-0.3726Y8.5482
X-1.8346Y7.9961
X-1.8346Y7.8961
X-1.8346Y7.7961
X-1.8346Y7.6961
X-1.5346Y7.9961
X-1.5346Y7.8961
X-1.5346Y7.7961
X-1.5346Y7.6961
X-0.7961Y10.4685
X-0.6961Y10.4685
X-0.5961Y10.4685
X-0.4961Y10.4685
X-0.3961Y10.4685
X-0.2961Y10.4685
X-0.1961Y10.4685
X-0.0961Y10.4685
X0.0039Y10.4685
X0.1039Y10.4685
X0.2039Y10.4685
X0.3039Y10.4685
X0.4039Y10.4685
X0.5039Y10.4685
X0.2953Y7.9982
X0.2953Y7.8982
X0.2953Y7.7982
X0.2953Y7.6982
X0.5953Y7.9982
X0.5953Y7.8982
X0.5953Y7.7982
X0.5953Y7.6982
T5
X-2.1417Y10.185
X-2.1417Y9.9882
X-1.311Y7.3272
X-1.1142Y7.3272
X-0.9173Y7.3272
X-0.7205Y7.3272
X-0.5236Y7.3272
X-0.3268Y7.3272
X-2.1417Y9.6772
X-2.1417Y9.4803
X0.3453Y7.3232
X0.5421Y7.3232
T6
X0.9724Y7.2559
X-2.2559Y10.4843
X-2.2559Y7.2559
X0.9724Y10.4843
T0
M30
