%TF.GenerationSoftware,KiCad,Pcbnew,(5.1.7)-1*%
%TF.CreationDate,2020-12-19T19:15:01-05:00*%
%TF.ProjectId,Radiometer amps r2,52616469-6f6d-4657-9465-7220616d7073,rev?*%
%TF.SameCoordinates,Original*%
%TF.FileFunction,Soldermask,Top*%
%TF.FilePolarity,Negative*%
%FSLAX46Y46*%
G04 Gerber Fmt 4.6, Leading zero omitted, Abs format (unit mm)*
G04 Created by KiCad (PCBNEW (5.1.7)-1) date 2020-12-19 19:15:01*
%MOMM*%
%LPD*%
G01*
G04 APERTURE LIST*
%ADD10C,2.000000*%
%ADD11C,2.500000*%
%ADD12R,2.500000X2.500000*%
%ADD13R,1.450000X2.000000*%
%ADD14R,0.800000X1.500000*%
%ADD15C,1.600000*%
%ADD16R,1.600000X1.600000*%
%ADD17O,1.050000X1.500000*%
%ADD18R,1.050000X1.500000*%
%ADD19R,0.977900X0.558800*%
%ADD20O,1.700000X1.700000*%
%ADD21R,1.700000X1.700000*%
%ADD22O,1.600000X1.600000*%
%ADD23C,5.000000*%
G04 APERTURE END LIST*
D10*
%TO.C,GND_test*%
X-55230000Y200690000D03*
%TD*%
%TO.C,Vref_test*%
X-25800000Y238000000D03*
%TD*%
D11*
%TO.C,J6*%
X-54400000Y253700000D03*
D12*
X-54400000Y258700000D03*
%TD*%
D13*
%TO.C,J7*%
X-29225000Y265550000D03*
X-42975000Y265550000D03*
X-42975000Y257250000D03*
X-29225000Y257250000D03*
D14*
X-31600000Y262950000D03*
X-32700000Y262950000D03*
X-33800000Y262950000D03*
X-34900000Y262950000D03*
X-36000000Y262950000D03*
X-37100000Y262950000D03*
X-38200000Y262950000D03*
X-39300000Y262950000D03*
%TD*%
D12*
%TO.C,J2*%
X8770000Y186010000D03*
D11*
X13770000Y186010000D03*
%TD*%
D15*
%TO.C,A4*%
X-9465000Y224745000D03*
X-9465000Y222205000D03*
X-9465000Y219665000D03*
X-9465000Y217125000D03*
X-17085000Y217125000D03*
X-17085000Y219665000D03*
X-17085000Y222205000D03*
D16*
X-17085000Y224745000D03*
%TD*%
D17*
%TO.C,U1*%
X-55530000Y223100000D03*
X-54260000Y223100000D03*
D18*
X-56800000Y223100000D03*
%TD*%
D19*
%TO.C,U3*%
X-41434750Y224550001D03*
X-41434750Y223600000D03*
X-41434750Y222649999D03*
X-44165250Y222649999D03*
X-44165250Y223600000D03*
X-44165250Y224550001D03*
%TD*%
D20*
%TO.C,J4*%
X-20220000Y265900000D03*
X-17680000Y265900000D03*
X-15140000Y265900000D03*
X-12600000Y265900000D03*
X-10060000Y265900000D03*
X-7520000Y265900000D03*
X-4980000Y265900000D03*
X-2440000Y265900000D03*
X100000Y265900000D03*
X2640000Y265900000D03*
X5180000Y265900000D03*
X7720000Y265900000D03*
X10260000Y265900000D03*
D21*
X12800000Y265900000D03*
%TD*%
D12*
%TO.C,J3*%
X-33300000Y186110000D03*
D11*
X-28300000Y186110000D03*
X-23300000Y186110000D03*
X-18300000Y186110000D03*
X-13300000Y186110000D03*
X-8300000Y186110000D03*
%TD*%
D16*
%TO.C,A3*%
X-17085000Y203155000D03*
D15*
X-17085000Y200615000D03*
X-17085000Y198075000D03*
X-17085000Y195535000D03*
X-9465000Y195535000D03*
X-9465000Y198075000D03*
X-9465000Y200615000D03*
X-9465000Y203155000D03*
%TD*%
%TO.C,A1*%
X15120000Y203155000D03*
X15120000Y200615000D03*
X15120000Y198075000D03*
X15120000Y195535000D03*
X7500000Y195535000D03*
X7500000Y198075000D03*
X7500000Y200615000D03*
D16*
X7500000Y203155000D03*
%TD*%
%TO.C,A2*%
X7500000Y224745000D03*
D15*
X7500000Y222205000D03*
X7500000Y219665000D03*
X7500000Y217125000D03*
X15120000Y217125000D03*
X15120000Y219665000D03*
X15120000Y222205000D03*
X15120000Y224745000D03*
%TD*%
%TO.C,C1*%
X-56600000Y232200000D03*
D16*
X-54600000Y232200000D03*
%TD*%
%TO.C,C2*%
X-56500000Y213300000D03*
D15*
X-54500000Y213300000D03*
%TD*%
D16*
%TO.C,C3*%
X21000000Y204200000D03*
D15*
X23000000Y204200000D03*
%TD*%
%TO.C,C4*%
X23000000Y226000000D03*
D16*
X21000000Y226000000D03*
%TD*%
%TO.C,C5*%
X-3300000Y204300000D03*
D15*
X-1300000Y204300000D03*
%TD*%
%TO.C,C6*%
X-1400000Y226000000D03*
D16*
X-3400000Y226000000D03*
%TD*%
D15*
%TO.C,C7*%
X-35500000Y224000000D03*
X-35500000Y229000000D03*
%TD*%
%TO.C,C9*%
X19400000Y195800000D03*
X24400000Y195800000D03*
%TD*%
%TO.C,C10*%
X24500000Y217300000D03*
X19500000Y217300000D03*
%TD*%
%TO.C,C11*%
X-5000000Y195800000D03*
X0Y195800000D03*
%TD*%
%TO.C,C12*%
X-200000Y217300000D03*
X-5200000Y217300000D03*
%TD*%
D12*
%TO.C,J1*%
X-54400000Y245800000D03*
D11*
X-54400000Y240800000D03*
%TD*%
D21*
%TO.C,J5*%
X12800000Y245500000D03*
D20*
X10260000Y245500000D03*
X7720000Y245500000D03*
X5180000Y245500000D03*
X2640000Y245500000D03*
X100000Y245500000D03*
X-2440000Y245500000D03*
X-4980000Y245500000D03*
X-7520000Y245500000D03*
X-10060000Y245500000D03*
X-12600000Y245500000D03*
X-15140000Y245500000D03*
X-17680000Y245500000D03*
X-20220000Y245500000D03*
%TD*%
D22*
%TO.C,Ra1*%
X-39400000Y219260000D03*
D15*
X-39400000Y209100000D03*
%TD*%
%TO.C,Rb1*%
X-46200000Y209100000D03*
D22*
X-46200000Y219260000D03*
%TD*%
D15*
%TO.C,Rd1*%
X-24800000Y219300000D03*
D22*
X-24800000Y209140000D03*
%TD*%
%TO.C,Rd2*%
X-31500000Y219260000D03*
D15*
X-31500000Y209100000D03*
%TD*%
%TO.C,Rg1*%
X6230000Y209505000D03*
D22*
X16390000Y209505000D03*
%TD*%
D15*
%TO.C,Rg2*%
X6230000Y231730000D03*
D22*
X16390000Y231730000D03*
%TD*%
%TO.C,Rg3*%
X-8195000Y209505000D03*
D15*
X-18355000Y209505000D03*
%TD*%
D22*
%TO.C,Rg4*%
X-8195000Y231730000D03*
D15*
X-18355000Y231730000D03*
%TD*%
D23*
%TO.C,H1*%
X-57300000Y266300000D03*
%TD*%
%TO.C,H2*%
X-57300000Y184300000D03*
%TD*%
%TO.C,H3*%
X24700000Y266300000D03*
%TD*%
%TO.C,H4*%
X24700000Y184300000D03*
%TD*%
D19*
%TO.C,U4*%
X-26734750Y224550001D03*
X-26734750Y223600000D03*
X-26734750Y222649999D03*
X-29465250Y222649999D03*
X-29465250Y223600000D03*
X-29465250Y224550001D03*
%TD*%
D15*
%TO.C,U2-rtd1*%
X-38980000Y203100000D03*
X-38980000Y200560000D03*
X-38980000Y198020000D03*
X-38980000Y195480000D03*
X-46600000Y195480000D03*
X-46600000Y198020000D03*
X-46600000Y200560000D03*
D16*
X-46600000Y203100000D03*
%TD*%
%TO.C,U5-aref1*%
X-31900000Y203100000D03*
D15*
X-31900000Y200560000D03*
X-31900000Y198020000D03*
X-31900000Y195480000D03*
X-24280000Y195480000D03*
X-24280000Y198020000D03*
X-24280000Y200560000D03*
X-24280000Y203100000D03*
%TD*%
%TO.C,R1*%
X-30500000Y245400000D03*
D22*
X-40660000Y245400000D03*
%TD*%
M02*
